<mxfile host="app.diagrams.net" modified="2023-09-23T04:08:27.526Z" agent="Mozilla/5.0 (Windows NT 10.0; Win64; x64) AppleWebKit/537.36 (KHTML, like Gecko) Chrome/116.0.0.0 Safari/537.36" version="21.8.1" etag="ubdz5gWBmQT0hPwPy5ka" type="github">
  <diagram name="Page-1" id="pxZE5ITGXR-uxUO2dmDi">
    <mxGraphModel>
      <root>
        <mxCell id="0" />
        <mxCell id="1" parent="0" />
      </root>
    </mxGraphModel>
  </diagram>
</mxfile>
